<svg width="96" height="96" viewBox="0 0 96 96" fill="none" xmlns="http://www.w3.org/2000/svg">
<path d="M84.8206 28.0555C83.0353 17.9997 26.3506 10.2292 17.8702 18.4567C9.38983 26.6842 21.5537 46.4292 22 51C22.4463 55.5708 14.2995 70.5643 15.6385 81.9914C16.9775 93.4184 33.9383 84.7339 51.3454 84.7339C68.7525 84.7339 79.4646 94.3326 89.7303 84.7339C99.996 75.1351 71.8769 53.6522 75.8939 46.3388C79.9109 39.0255 86.606 38.1113 84.8206 28.0555Z" fill="#0038FF"/>
<path d="M81.9525 31.8569C80.812 22.8438 34.5 14.1392 27.267 21.2007C20.0339 28.2623 25.922 48.0574 26.1404 52.1427C26.3588 56.2281 22.6439 67.5015 23.3733 77.7218C24.1026 87.9422 38.3168 80.7404 52.616 81.288C66.9151 81.8357 75.4033 90.7225 84.1474 82.4957C92.8916 74.2689 70.4896 54.249 74.0266 47.8613C77.5636 41.4736 83.0929 40.87 81.9525 31.8569Z" fill="#212D9A"/>
<path d="M73.67 32.7998C71.9726 25.5882 32.3395 22.5599 26.84 28.9176C21.3405 35.2754 27.9118 50.8195 28.4303 54.1144C28.9488 57.4092 26.7513 66.877 28.2022 75.1038C29.6532 83.3306 41.0079 76.2511 53.0695 75.4503C65.131 74.6495 72.993 81.1189 79.6668 73.6844C86.3406 66.2498 65.873 51.9613 68.3216 46.4719C70.7703 40.9825 75.3675 40.0115 73.67 32.7998Z" fill="#261F71"/>
<path fill-rule="evenodd" clip-rule="evenodd" d="M48 72C59.0457 72 68 63.0457 68 52C68 40.9543 59.0457 32 48 32C36.9543 32 28 40.9543 28 52C28 63.0457 36.9543 72 48 72ZM48.2667 68.2667C57.1032 68.2667 64.2667 61.1032 64.2667 52.2667C64.2667 43.4301 57.1032 36.2667 48.2667 36.2667C39.4301 36.2667 32.2667 43.4301 32.2667 52.2667C32.2667 61.1032 39.4301 68.2667 48.2667 68.2667Z" fill="url(#paint0_linear)"/>
<mask id="mask0" mask-type="alpha" maskUnits="userSpaceOnUse" x="34" y="38" width="28" height="28">
<line x1="48.7" y1="39.9" x2="48.7" y2="40.1" stroke="black" stroke-width="3" stroke-linecap="round"/>
<line x1="56.9277" y1="44.2545" x2="56.7879" y2="44.3975" stroke="black" stroke-width="3" stroke-linecap="round"/>
<line x1="59.5667" y1="52.7" x2="59.3667" y2="52.7" stroke="black" stroke-width="3" stroke-linecap="round"/>
<line x1="55.9032" y1="60.3941" x2="55.7601" y2="60.2545" stroke="black" stroke-width="3" stroke-linecap="round"/>
<line x1="47.3086" y1="63.558" x2="47.3098" y2="63.358" stroke="black" stroke-width="3" stroke-linecap="round"/>
<line x1="39.3647" y1="59.6986" x2="39.5167" y2="59.5686" stroke="black" stroke-width="3" stroke-linecap="round"/>
<line x1="36.4528" y1="51.3197" x2="36.6529" y2="51.3223" stroke="black" stroke-width="3" stroke-linecap="round"/>
<line x1="40.2545" y1="43.2227" x2="40.3944" y2="43.3656" stroke="black" stroke-width="3" stroke-linecap="round"/>
<path fill-rule="evenodd" clip-rule="evenodd" d="M52.9152 45.113C53.2022 44.3359 52.8049 43.4733 52.0278 43.1863C51.2506 42.8993 50.388 43.2966 50.101 44.0737L47.649 50.7133C47.7608 50.6829 47.8785 50.6666 48 50.6666C48.7364 50.6666 49.3333 51.2636 49.3333 52C49.3333 52.7364 48.7364 53.3333 48 53.3333C47.5415 53.3333 47.137 53.1018 46.897 52.7494L46.1196 54.8544C45.8326 55.6315 46.23 56.4942 47.0071 56.7812C47.7842 57.0681 48.6469 56.6708 48.9339 55.8937L52.9152 45.113Z" fill="black"/>
<path fill-rule="evenodd" clip-rule="evenodd" d="M48 54.9333C49.62 54.9333 50.9333 53.62 50.9333 52C50.9333 50.3799 49.62 49.0666 48 49.0666C46.38 49.0666 45.0667 50.3799 45.0667 52C45.0667 53.62 46.38 54.9333 48 54.9333ZM48 53.3333C48.7364 53.3333 49.3333 52.7364 49.3333 52C49.3333 51.2636 48.7364 50.6666 48 50.6666C47.2636 50.6666 46.6667 51.2636 46.6667 52C46.6667 52.7364 47.2636 53.3333 48 53.3333Z" fill="#C4C4C4"/>
</mask>
<g mask="url(#mask0)">
<rect x="28" y="37.3333" width="42.6667" height="30.9333" fill="url(#paint1_linear)"/>
</g>
<defs>
<linearGradient id="paint0_linear" x1="48" y1="32" x2="48" y2="72" gradientUnits="userSpaceOnUse">
<stop stop-color="#FAFF00"/>
<stop offset="1" stop-color="#C314CC"/>
</linearGradient>
<linearGradient id="paint1_linear" x1="49.3333" y1="37.3333" x2="49.3333" y2="68.2666" gradientUnits="userSpaceOnUse">
<stop stop-color="#1F91CC"/>
<stop offset="0.0001" stop-color="#FAFF00"/>
<stop offset="1" stop-color="#C314CC"/>
</linearGradient>
</defs>
</svg>
