<svg width="96" height="96" viewBox="0 0 96 96" fill="none" xmlns="http://www.w3.org/2000/svg">
<path d="M20.5 23C23 7.49999 35.5 5.5 35.5 5.5C35.5 5.5 74.5 -4.00002 72 25C69.5 54 82 35.5 87.5 54C93 72.5 69.5 79 52.5 71C35.5 63 36.5 86.5 25 84.5C13.5 82.5 7.24356 77.261 10.5 65C13.7564 52.739 30 59 31.5 47C33 35 18 38.5 20.5 23Z" fill="#0038FF"/>
<path d="M25.1095 27.9295C27.2067 14.9265 37.693 13.2487 37.693 13.2487C37.693 13.2487 70.4101 5.27913 68.3129 29.6073C66.2156 53.9354 76.7019 38.4157 81.3158 53.9354C85.9297 69.4551 66.2156 74.9079 51.9543 68.1967C37.693 61.4855 38.5319 81.1997 28.8845 79.5219C19.2372 77.8441 13.9886 73.4491 16.7204 63.1633C19.4523 52.8776 33.079 58.1299 34.3374 48.0631C35.5957 37.9963 23.0122 40.9324 25.1095 27.9295Z" fill="#212D9A"/>
<path d="M30.4673 31.7335C33.193 21.2642 41.898 20.7074 41.898 20.7074C41.898 20.7074 69.27 16.7341 65.6639 36.464C62.0578 56.1939 71.8388 44.3187 74.4052 57.3677C76.9715 70.4167 60.4275 73.3429 49.2878 66.7466C38.1482 60.1503 37.3016 76.3356 29.5435 74.2137C21.7853 72.0918 17.8353 68.0901 20.8687 59.8918C23.9021 51.6936 34.6362 57.0477 36.4477 48.914C38.2592 40.7803 27.7416 42.2029 30.4673 31.7335Z" fill="#261F71"/>
<mask id="mask0" mask-type="alpha" maskUnits="userSpaceOnUse" x="29" y="24" width="40" height="40">
<path fill-rule="evenodd" clip-rule="evenodd" d="M48.9515 24.0398L51.4899 24L51.539 27.196C52.9425 27.4022 54.2878 27.7948 55.5507 28.3488L57.086 25.2116L59.181 26.3043L57.6382 29.4568C58.4796 29.9868 59.2704 30.5941 60.0012 31.2692L63.5048 28.8463L64.8111 30.8595L61.6567 33.0409C62.4222 33.9909 63.0873 35.0301 63.6352 36.1413L67.3635 34.9042L68.0818 37.2112L64.547 38.384C64.8957 39.4563 65.1415 40.5774 65.2724 41.7346L68.8955 41.5679L69 43.9887L65.376 44.1554C65.3381 45.5753 65.1281 46.9508 64.7668 48.2605L68.0822 49.2915L67.4052 51.6117L63.9585 50.5398C63.5574 51.4565 63.0782 52.3289 62.5298 53.1482L65.34 55.1952L63.9867 57.1751L61.0558 55.0401C60.2172 55.9695 59.2769 56.7999 58.2532 57.5122L59.8495 60.6613L57.7699 61.7849L56.215 58.7176C55.0477 59.2956 53.8027 59.7329 52.5005 60.0083L52.5291 63.982L50.1819 64L50.1554 60.3214C49.854 60.3387 49.5505 60.3474 49.2449 60.3474C47.8462 60.3474 46.4891 60.1637 45.1949 59.8184L44.1769 63.7353L41.9098 63.1073L42.9671 59.0398C42.0427 58.6364 41.1624 58.1467 40.3355 57.5804L37.2189 60.62L35.4549 58.8479L38.3743 56.0006C37.4305 55.1121 36.5893 54.1094 35.871 53.0138L32.4576 54.654L31.3472 52.4028L34.6541 50.8137C33.9811 49.3475 33.5093 47.7637 33.2756 46.1003L29.1326 46.317L29 43.8162L33.1079 43.6014C33.1163 41.8878 33.3754 40.2355 33.8492 38.6813L30.1736 37.229L31.101 34.9042L34.7545 36.3479C35.4689 34.8478 36.3953 33.4749 37.4935 32.2708L34.513 30.126L36.0071 28.1034L39.362 30.5176C40.2653 29.7942 41.245 29.1676 42.2866 28.653L40.7362 25.7856L42.9763 24.6058L44.6559 27.7122C46.0351 27.2907 47.4913 27.0543 48.9975 27.0309L48.9515 24.0398ZM49.5383 53.6837C54.7237 53.6837 58.9273 49.3442 58.9273 43.9911C58.9273 38.638 54.7237 34.2984 49.5383 34.2984C44.353 34.2984 40.1494 38.638 40.1494 43.9911C40.1494 49.3442 44.353 53.6837 49.5383 53.6837Z" fill="black"/>
</mask>
<g mask="url(#mask0)">
<rect x="9.04846" y="19.7595" width="81.5666" height="51.4922" fill="url(#paint0_linear)"/>
</g>
<defs>
<linearGradient id="paint0_linear" x1="49.8317" y1="19.7595" x2="49.8317" y2="71.2517" gradientUnits="userSpaceOnUse">
<stop offset="0.234375" stop-color="#FAFF00"/>
<stop offset="0.770833" stop-color="#C314CC"/>
</linearGradient>
</defs>
</svg>
