<svg width="96" height="96" viewBox="0 0 96 96" fill="none" xmlns="http://www.w3.org/2000/svg">
<path d="M72.4663 35.9311C61.7323 16.3399 67.4571 13.4375 51.7139 6.90714C35.9707 0.37676 35.9707 30.8519 25.2367 42.4614C14.5027 54.071 -1.95606 56.2478 0.190739 75.839C2.33754 95.4301 23.8055 77.2902 45.9891 80.1926C68.1727 83.095 88.9251 97.6069 93.2187 82.3694C97.5123 67.1318 83.2003 55.5222 72.4663 35.9311Z" fill="#0038FF"/>
<path d="M69.0762 41.0688C60.7655 25.3084 65.654 23.2478 52.7065 17.5383C39.7591 11.8288 38.7179 35.7191 29.3414 44.4178C19.9648 53.1165 6.12125 54.206 7.24793 69.6445C8.37461 85.083 26.9542 71.6673 45.4135 74.7742C63.8729 77.881 80.7383 90.0352 84.8509 78.251C88.9634 66.4668 77.3868 56.8292 69.0762 41.0688Z" fill="#212D9A"/>
<path d="M68.3803 41.4184C60.7826 28.6278 65.0722 26.8873 53.534 22.367C41.9958 17.8466 41.4538 37.3906 33.3011 44.6094C25.1485 51.8281 12.9256 52.8767 14.1664 65.486C15.4071 78.0954 31.6221 66.9152 47.9925 69.2449C64.3629 71.5745 79.4673 81.3193 82.9168 71.6379C86.3663 61.9566 75.9779 54.2091 68.3803 41.4184Z" fill="#261F71"/>
<path fill-rule="evenodd" clip-rule="evenodd" d="M40.4394 49.9195C33.6766 53.1272 29 60.0175 29 68H69C69 60.0175 64.3234 53.1272 57.5606 49.9195C55.5927 52.4935 52.4903 54.1539 49 54.1539C45.5097 54.1539 42.4073 52.4935 40.4394 49.9195Z" fill="url(#paint0_linear)"/>
<circle cx="49" cy="38.7692" r="10.7692" fill="url(#paint1_linear)"/>
<defs>
<linearGradient id="paint0_linear" x1="49" y1="49.9195" x2="49" y2="68" gradientUnits="userSpaceOnUse">
<stop stop-color="#FAFF00"/>
<stop offset="1" stop-color="#C314CC"/>
</linearGradient>
<linearGradient id="paint1_linear" x1="49" y1="28" x2="49" y2="49.5385" gradientUnits="userSpaceOnUse">
<stop stop-color="#FAFF00"/>
<stop offset="1" stop-color="#C314CC"/>
</linearGradient>
</defs>
</svg>
